<!-- icon666.com - MILLIONS vector ICONS FREE --><svg id="Layer_1" viewBox="0 0 512 512" xmlns="http://www.w3.org/2000/svg" data-name="Layer 1"><path d="m506.906 12.068a18 18 0 0 0 -25.453-.359l-73.772 71.722v-58.815a18 18 0 0 0 -28.341-14.734l-159.24 111.766h-202.1a18 18 0 0 0 -18 18v232.7a18 18 0 0 0 18 18h73.984l-86.531 84.13a18 18 0 0 0 25.094 25.813l113.082-109.939h76.471l159.24 111.766a18 18 0 0 0 28.341-14.734v-353.744l98.866-96.118a18 18 0 0 0 .359-25.454zm-470.906 342.284v-196.7h189.789a18 18 0 0 0 10.341-3.267l135.551-95.14v59.185l-242.668 235.922zm335.681 98.407-135.551-95.14a18 18 0 0 0 -10.341-3.267h-45.131l191.023-185.712z"></path></svg>