<!-- icon666.com - MILLIONS vector ICONS FREE --><svg id="Layer_1" enable-background="new 0 0 2500 2500" viewBox="0 0 2500 2500" xmlns="http://www.w3.org/2000/svg"><g><path d="m1920.8 1185-1220.6-704.6c-23.2-13.4-51.8-13.4-75 0s-37.5 38.2-37.5 65v1409.3c0 26.8 14.3 51.6 37.5 65 11.6 6.7 24.6 10 37.5 10s25.9-3.3 37.5-10l1220.6-704.7c23.2-13.4 37.5-38.2 37.5-65s-14.3-51.6-37.5-65zm-1183.1 639.8v-1149.6l995.5 574.8z" fill="#000000" style="fill: rgb(255, 255, 255);"></path><path d="m2305.6 194.4c-37.4-37.4-81-66.8-129.5-87.3-50.2-21.3-103.6-32.1-158.6-32.1h-1535c-55 0-108.4 10.8-158.6 32.1-48.5 20.5-92.1 49.9-129.5 87.3s-66.8 81-87.3 129.5c-21.3 50.2-32.1 103.6-32.1 158.6v1535c0 55 10.8 108.4 32.1 158.6 20.5 48.5 49.9 92.1 87.3 129.5s81 66.8 129.5 87.3c50.3 21.3 103.7 32.1 158.6 32.1h1535c55 0 108.4-10.8 158.6-32.1 48.5-20.5 92.1-49.9 129.5-87.3s66.8-81 87.3-129.5c21.3-50.3 32.1-103.7 32.1-158.6v-1535c0-55-10.8-108.4-32.1-158.6-20.5-48.6-49.9-92.1-87.3-129.5zm-30.6 1823.1c0 142-115.5 257.5-257.5 257.5h-1535c-142 0-257.5-115.5-257.5-257.5v-1535c0-142 115.5-257.5 257.5-257.5h1535c142 0 257.5 115.5 257.5 257.5z" fill="#000000" style="fill: rgb(255, 255, 255);"></path></g></svg>