<!-- icon666.com - MILLIONS vector ICONS FREE --><svg viewBox="0 0 100 100" xmlns="http://www.w3.org/2000/svg"><g id="Layer_35" data-name="Layer 35"><path d="m40.928 54.892a2 2 0 0 0 2 0l17.02-9.827a2 2 0 0 0 0-3.463l-17.02-9.827a2 2 0 0 0 -3 1.732v19.653a2 2 0 0 0 1 1.732zm3-17.921 11.02 6.362-11.02 6.367z"></path><path d="m23.449 68.493h53.1a2 2 0 0 0 0-4h-7.43v-4.617a2 2 0 1 0 -4 0v4.617h-41.67a2 2 0 1 0 0 4z"></path><path d="m95.647 3h-90.647a2 2 0 0 0 -2 2v90.648a2 2 0 0 0 2 2h90.647a2 2 0 0 0 2-2v-90.648a2 2 0 0 0 -2-2zm-2 90.648h-86.647v-86.648h86.647z"></path></g></svg>