<!-- icon666.com - MILLIONS vector ICONS FREE --><svg xmlns="http://www.w3.org/2000/svg" id="Layer_1" data-name="Layer 1" viewBox="0 0 512 512"><path d="M388.728,230,153.292,94.075a30.018,30.018,0,0,0-45.029,25.995V391.93a29.956,29.956,0,0,0,45.028,26L388.728,282h0a30.019,30.019,0,0,0,0-51.992ZM140.263,388.5V123.5L369.755,256ZM440.229,0H71.77A71.852,71.852,0,0,0,0,71.771V440.229A71.852,71.852,0,0,0,71.77,512H440.229A71.852,71.852,0,0,0,512,440.229V71.771A71.852,71.852,0,0,0,440.229,0ZM480,440.229A39.816,39.816,0,0,1,440.229,480H71.77A39.816,39.816,0,0,1,32,440.229V71.771A39.816,39.816,0,0,1,71.77,32H440.229A39.816,39.816,0,0,1,480,71.771Z" fill="#000000" style="fill: rgb(255, 255, 255);"></path></svg>